<svg width="24" height="21" viewBox="0 0 24 21" fill="none" xmlns="http://www.w3.org/2000/svg">
<path d="M5.0625 5.03125V19.9453C5.0625 19.993 5.08472 20.0387 5.12428 20.0724C5.16384 20.1061 5.21749 20.125 5.27344 20.125H10.5506C10.6136 20.125 10.6758 20.113 10.7327 20.0898C10.7895 20.0667 10.8396 20.033 10.8791 19.9912C10.9187 19.9494 10.9468 19.9006 10.9613 19.8483C10.9758 19.7961 10.9763 19.7417 10.9629 19.6893L9.31869 14.375H10.5469C10.6588 14.375 10.7661 14.3371 10.8452 14.2697C10.9243 14.2023 10.9688 14.1109 10.9688 14.0156V5.03125H5.0625ZM22.1579 6.94268L21.9375 6.89551V0.179688C21.9375 0.132031 21.9153 0.0863272 21.8757 0.0526293C21.8362 0.0189313 21.7825 0 21.7266 0H19.4854C19.4343 0.000171769 19.385 0.016134 19.3467 0.0449219L12.6562 5.03125V12.2188L19.3467 17.2051C19.385 17.2339 19.4343 17.2498 19.4854 17.25H21.7266C21.7825 17.25 21.8362 17.2311 21.8757 17.1974C21.9153 17.1637 21.9375 17.118 21.9375 17.0703V10.3545L22.1579 10.3073C22.6652 10.1901 23.625 9.6883 23.625 8.625C23.625 7.5617 22.6652 7.05992 22.1579 6.94268ZM3.375 5.03125H1.05469C0.998743 5.03125 0.945091 5.05018 0.905532 5.08388C0.865974 5.11758 0.84375 5.16328 0.84375 5.21094V6.80971C0.763904 6.87027 0.689186 6.93557 0.620156 7.00512C0.3375 7.29172 0 7.80473 0 8.625C0 9.53197 0.416074 10.1133 0.84375 10.4407V12.0391C0.84375 12.0867 0.865974 12.1324 0.905532 12.1661C0.945091 12.1998 0.998743 12.2188 1.05469 12.2188H3.375V5.03125Z" fill="white"/>
</svg>
